<svg width="32" height="32" viewBox="0 0 32 32" fill="none" xmlns="http://www.w3.org/2000/svg">
<path fill-rule="evenodd" clip-rule="evenodd" d="M3.7005 0H11.0495C13.0899 0 14.75 1.66006 14.75 3.7005V11.0495C14.75 13.0899 13.0899 14.75 11.0495 14.75H3.7005C1.66006 14.75 0 13.0899 0 11.0495V3.7005C0 1.66006 1.66006 0 3.7005 0ZM11.0495 12.25C11.7114 12.25 12.25 11.7114 12.25 11.0495V3.7005C12.25 3.03856 11.7114 2.5 11.0495 2.5H3.7005C3.03856 2.5 2.5 3.03856 2.5 3.7005V11.0495C2.5 11.7114 3.03856 12.25 3.7005 12.25H11.0495ZM21 0H28.25C30.3177 0 32 1.68225 32 3.75V11C32 13.0677 30.3177 14.75 28.25 14.75H21C18.9323 14.75 17.25 13.0677 17.25 11V3.75C17.25 1.68225 18.9323 0 21 0ZM28.25 12.25C28.9393 12.25 29.5 11.6892 29.5 11V3.75C29.5 3.06075 28.9393 2.5 28.25 2.5H21C20.3107 2.5 19.75 3.06075 19.75 3.75V11C19.75 11.6892 20.3107 12.25 21 12.25H28.25ZM11.0495 17.25H3.7005C1.66006 17.25 0 18.9101 0 20.9505V28.2995C0 30.3399 1.66006 32 3.7005 32H11.0495C13.0899 32 14.75 30.3399 14.75 28.2995V20.9505C14.75 18.9101 13.0899 17.25 11.0495 17.25ZM12.25 28.2995C12.25 28.9614 11.7114 29.5 11.0495 29.5H3.7005C3.03856 29.5 2.5 28.9614 2.5 28.2995V20.9505C2.5 20.2886 3.03856 19.75 3.7005 19.75H11.0495C11.7114 19.75 12.25 20.2886 12.25 20.9505V28.2995ZM21 17.25H28.25C30.3177 17.25 32 18.9323 32 21V28.25C32 30.3177 30.3177 32 28.25 32H21C18.9323 32 17.25 30.3177 17.25 28.25V21C17.25 18.9323 18.9323 17.25 21 17.25ZM28.25 29.5C28.9393 29.5 29.5 28.9393 29.5 28.25V21C29.5 20.3107 28.9393 19.75 28.25 19.75H21C20.3107 19.75 19.75 20.3107 19.75 21V28.25C19.75 28.9393 20.3107 29.5 21 29.5H28.25Z" fill="white"/>
</svg>
