<svg width="24" height="23" viewBox="0 0 24 23" fill="none" xmlns="http://www.w3.org/2000/svg">
<path d="M22.5575 9.76413C22.4593 9.7475 22.3599 9.73983 22.2604 9.74117H5.32893L5.69812 9.56199C6.059 9.38376 6.38731 9.14118 6.66833 8.84525L11.4164 3.89079C12.0417 3.2679 12.1468 2.26587 11.6653 1.51659C11.1051 0.718158 10.0306 0.544797 9.26536 1.12944C9.20355 1.1767 9.14479 1.22822 9.08957 1.28365L0.503632 10.2429C-0.167358 10.9423 -0.167949 12.0768 0.502291 12.777C0.50272 12.7774 0.503203 12.7779 0.503632 12.7784L9.08957 21.7376C9.7611 22.4364 10.8483 22.4348 11.518 21.7341C11.5707 21.6789 11.62 21.6202 11.6653 21.5584C12.1468 20.8091 12.0417 19.8071 11.4164 19.1842L6.67692 14.2208C6.42498 13.9576 6.13531 13.7369 5.81833 13.5668L5.30317 13.3249H22.1659C23.0432 13.3589 23.8128 12.7194 23.9776 11.8197C24.1294 10.8429 23.4936 9.9226 22.5575 9.76413Z" fill="white"/>
</svg>
