<svg width="230" height="230" viewBox="0 0 230 230" fill="none" xmlns="http://www.w3.org/2000/svg">
<path d="M122.217 196.318V109.687C122.217 80.4562 145.915 56.7582 175.147 56.7582C204.378 56.7582 228.076 80.4558 228.076 109.687V196.318L122.217 196.318Z" fill="#656D78"/>
<path d="M175.146 56.7582C172.697 56.7582 170.288 56.9284 167.928 57.2501C193.744 60.7715 213.639 82.9045 213.639 109.687V196.318H228.075V109.687C228.075 80.4562 204.377 56.7582 175.146 56.7582Z" fill="#515760"/>
<path d="M93.347 177.071H16.3591C8.38101 177.071 1.92395 183.523 1.92395 191.506V226.391C1.9244 228.385 3.54024 230 5.53297 230H22.3786H25.9827H83.7283H84.9313H104.173H104.174C106.166 230 107.782 228.385 107.783 226.392V191.507C107.782 183.523 101.325 177.071 93.347 177.071Z" fill="#FFCE54"/>
<path d="M86.3941 105.318L93.3902 119.311L93.3471 119.33V133.775C93.3471 145.934 87.7126 156.77 78.9164 163.819C72.3241 169.103 63.957 172.259 54.8532 172.259C45.7493 172.259 37.3817 169.103 30.7944 163.819C21.9938 156.775 16.3592 145.939 16.3592 133.775V119.33L16.3448 119.321L26.8444 105.318C26.8444 105.318 38.3103 112.324 51.365 112.324C64.4188 112.325 86.3941 105.318 86.3941 105.318Z" fill="#FFDECF"/>
<path d="M86.394 105.318C86.394 105.318 83.3739 106.281 78.9105 107.492V133.775C78.9105 145.934 73.2759 156.77 64.4798 163.819C59.6745 167.671 53.9241 170.383 47.635 171.577C47.6373 171.577 47.6395 171.577 47.6422 171.578C48.2203 171.687 48.803 171.784 49.3892 171.868C49.3959 171.869 49.4013 171.869 49.4076 171.87C49.9642 171.95 50.5244 172.015 51.0886 172.071C51.1349 172.076 51.1807 172.082 51.2274 172.086C51.7431 172.135 52.2624 172.169 52.7839 172.198C52.8738 172.202 52.9623 172.211 53.0521 172.216C53.6496 172.244 54.2493 172.259 54.853 172.259C63.9569 172.259 72.324 169.103 78.9163 163.819C87.7124 156.769 93.347 145.934 93.347 133.774V119.33L93.3901 119.31L86.394 105.318Z" fill="#FFCDBE"/>
<path d="M93.347 177.071H78.9119C86.8886 177.072 93.3457 183.524 93.3457 191.506V230H104.173H104.174C106.166 230 107.782 228.385 107.783 226.392V191.507C107.782 183.523 101.325 177.071 93.347 177.071Z" fill="#F6BB42"/>
<path d="M213.64 181.882H199.205L184.775 191.501L175.147 186.694L163.122 191.501L151.088 181.882H136.653C128.674 181.882 122.217 188.335 122.217 196.318V226.391C122.217 228.384 123.833 229.999 125.826 229.999H142.672H146.276H204.022H205.225H224.467C226.46 229.999 228.076 228.384 228.076 226.391V196.318C228.076 188.335 221.618 181.882 213.64 181.882Z" fill="#FFE1E6"/>
<path d="M213.64 181.882H199.205C207.182 181.883 213.639 188.335 213.639 196.318V229.999H224.467C226.46 229.999 228.076 228.384 228.076 226.391V196.318C228.075 188.335 221.618 181.882 213.64 181.882Z" fill="#F4CDD3"/>
<path d="M25.9827 211.956C23.9895 211.956 22.3737 213.571 22.3737 215.565V230H22.3782H25.9822H29.5912V215.565C29.5917 213.572 27.9759 211.956 25.9827 211.956Z" fill="#F6BB42"/>
<path d="M83.7284 211.956C81.7352 211.956 80.1194 213.571 80.1194 215.565V230H80.1239H83.728H87.337V215.565C87.337 213.572 85.7216 211.956 83.7284 211.956Z" fill="#F6BB42"/>
<path d="M189.582 181.882H199.205C199.2 195.168 188.432 205.932 175.147 205.932C161.866 205.932 151.093 195.168 151.088 181.882H160.711V169.464C165.167 171.268 170.041 172.259 175.147 172.259C180.251 172.259 185.131 171.268 189.587 169.459V169.464L189.582 181.882Z" fill="#FFDECF"/>
<path d="M213.64 114.519V133.775C213.64 149.938 203.689 163.757 189.587 169.459C185.131 171.268 180.252 172.259 175.146 172.259C170.041 172.259 165.167 171.268 160.711 169.464C146.608 163.757 136.652 149.938 136.652 133.775V114.519H213.64Z" fill="#FFDECF"/>
<path d="M199.204 114.519V133.775C199.204 149.938 189.253 163.757 175.15 169.459C172.847 170.394 170.43 171.106 167.928 171.58C170.266 172.023 172.679 172.26 175.147 172.26C180.252 172.26 185.131 171.269 189.587 169.459C203.69 163.757 213.641 149.939 213.641 133.775V114.519H199.204V114.519Z" fill="#FFCDBE"/>
<path d="M146.274 211.956C144.281 211.956 142.665 213.571 142.665 215.565V230H142.669H146.273H149.882V215.565C149.882 213.572 148.267 211.956 146.274 211.956Z" fill="#F4CDD3"/>
<path d="M204.019 211.956C202.026 211.956 200.41 213.571 200.41 215.565V230H200.415H204.019H207.628V215.565C207.628 213.572 206.013 211.956 204.019 211.956Z" fill="#F4CDD3"/>
<path d="M146.276 101.282C144.283 101.282 142.667 102.897 142.667 104.891V114.519H149.885V104.891C149.885 102.897 148.269 101.282 146.276 101.282Z" fill="#515760"/>
<path d="M160.712 101.282C158.718 101.282 157.103 102.897 157.103 104.891V114.519H164.32V104.891C164.32 102.897 162.705 101.282 160.712 101.282Z" fill="#515760"/>
<path d="M175.147 101.282C173.153 101.282 171.538 102.897 171.538 104.891V114.519H178.755V104.891C178.755 102.897 177.14 101.282 175.147 101.282Z" fill="#515760"/>
<path d="M189.582 101.282C187.589 101.282 185.973 102.897 185.973 104.891V114.519H193.19V104.891C193.19 102.897 191.575 101.282 189.582 101.282Z" fill="#515760"/>
<path d="M204.017 101.282C202.024 101.282 200.408 102.897 200.408 104.891V114.519H207.625V104.891C207.626 102.897 206.01 101.282 204.017 101.282Z" fill="#515760"/>
<path d="M78.9142 85.6578C78.9142 85.6578 78.9124 83.9956 78.9124 69.989C78.9124 67.9959 77.2965 66.38 75.3034 66.38C47.4501 66.2367 9.60525 65.4847 16.3372 119.34L16.3471 119.33L26.8462 105.327C26.8462 105.327 38.3121 112.333 51.3668 112.333C64.4211 112.333 86.3959 105.327 86.3959 105.327L93.392 119.32L93.4014 119.34C100.408 84.3101 78.9142 85.6578 78.9142 85.6578Z" fill="#965353"/>
<path d="M78.9141 85.6578C78.9141 85.6578 78.9141 85.656 78.9141 85.6529C78.9141 85.5419 78.9123 83.5586 78.9123 69.9895C78.9123 68.1253 77.4981 66.5921 75.6851 66.4012C72.0823 66.3828 68.3076 66.3536 64.4775 66.4317C64.4775 80.4226 64.4775 78.681 64.4775 85.6578C64.4775 97.2059 78.9127 91.9132 78.9127 107.501C82.568 106.484 86.3962 105.328 86.3962 105.328L93.3923 119.32L93.4018 119.34C100.408 84.3102 78.9141 85.6578 78.9141 85.6578Z" fill="#864B4C"/>
<path d="M78.9164 163.819C72.3241 169.103 63.957 172.259 54.8531 172.259V181.883L62.4822 185.692C62.9979 185.976 63.5904 186.139 64.2207 186.139C64.9893 186.139 65.7 185.897 66.2853 185.487L78.9115 177.071L78.9164 163.819Z" fill="#F5F7FA"/>
<path d="M30.7921 163.819C37.3844 169.103 45.752 172.259 54.8554 172.259V181.883L47.2263 185.692C46.7106 185.976 46.1181 186.139 45.4878 186.139C44.7192 186.139 44.0086 185.897 43.4232 185.487L30.7971 177.071L30.7921 163.819Z" fill="#F5F7FA"/>
<path d="M140.497 5.77785C132.793 -1.92579 120.302 -1.92579 112.594 5.77785C104.89 -1.92579 92.3991 -1.92579 84.6909 5.77785C76.9873 13.4864 76.9873 25.9778 84.6909 33.686L110.025 59.016H110.032C110.686 59.6764 111.593 60.0861 112.596 60.0861C113.591 60.0861 114.493 59.6827 115.146 59.0313H115.148L140.497 33.686C148.205 25.9778 148.205 13.4869 140.497 5.77785Z" fill="#ED5565"/>
<path d="M140.497 5.77786C134.774 0.055724 126.412 -1.41187 119.328 1.36699C121.78 2.32922 124.079 3.79681 126.06 5.77786C133.769 13.4864 133.769 25.9778 126.06 33.686L105.375 54.3675L110.025 59.016H110.031C110.685 59.6764 111.592 60.0861 112.595 60.0861C113.591 60.0861 114.492 59.6827 115.145 59.0313H115.147L140.496 33.686C148.205 25.9778 148.205 13.4869 140.497 5.77786Z" fill="#DA4453"/>
</svg>
