<svg width="134" height="21" viewBox="0 0 134 21" fill="none" xmlns="http://www.w3.org/2000/svg">
<path d="M18.3602 7.27528C18.0941 7.03161 17.7664 6.87452 17.4127 6.82101L13.0818 6.16587L11.1449 2.08038C10.9867 1.7467 10.7419 1.4708 10.4371 1.28261C10.1543 1.10805 9.83018 1.01575 9.49977 1.01575C9.16937 1.01575 8.84524 1.10802 8.56245 1.28261C8.2576 1.4708 8.01287 1.74667 7.85466 2.08038L5.91782 6.1659L1.58689 6.82101C1.23314 6.87452 0.905477 7.03161 0.639348 7.27528C0.392467 7.50131 0.208032 7.7937 0.105922 8.12084C0.00384399 8.44795 -0.0120278 8.79737 0.0600422 9.13131C0.137761 9.49127 0.314149 9.81887 0.57015 10.0786L3.70403 13.2587L2.96421 17.7491C2.87254 18.3056 3.01968 18.8713 3.36791 19.3013C3.71874 19.7345 4.23061 19.983 4.77227 19.983C5.06727 19.983 5.36253 19.9067 5.6261 19.7624L9.4998 17.6424L13.3735 19.7624C13.6371 19.9067 13.9323 19.983 14.2273 19.983C14.769 19.983 15.2808 19.7345 15.6317 19.3013C15.9799 18.8713 16.1271 18.3056 16.0354 17.7491L15.2956 13.2587L18.4295 10.0786C18.6855 9.81884 18.8618 9.49127 18.9396 9.13131C19.0117 8.79737 18.9958 8.44795 18.8937 8.12084C18.7916 7.79373 18.6071 7.50135 18.3602 7.27528ZM17.4859 9.0709L14.0249 12.583C13.9111 12.6985 13.8591 12.8649 13.886 13.0279L14.703 17.9871C14.7566 18.3119 14.5086 18.5757 14.2273 18.5757C14.1531 18.5757 14.0765 18.5574 14.0026 18.5169L9.7245 16.1755C9.65417 16.137 9.57699 16.1178 9.49984 16.1178C9.42268 16.1178 9.3455 16.137 9.27517 16.1755L4.9971 18.5169C4.92316 18.5574 4.84655 18.5757 4.77233 18.5757C4.491 18.5757 4.24307 18.3119 4.29659 17.9871L5.11363 13.0279C5.14051 12.8649 5.08857 12.6985 4.97479 12.583L1.51369 9.0709C1.22714 8.78016 1.38526 8.27356 1.78124 8.21364L6.5643 7.49011C6.72154 7.46633 6.85748 7.36351 6.92781 7.21517L9.06688 2.70316C9.15542 2.51639 9.32761 2.423 9.4998 2.423C9.67203 2.423 9.84419 2.51642 9.9327 2.70316L12.0718 7.21517C12.1421 7.36348 12.278 7.46633 12.4353 7.49011L17.2183 8.21364C17.6143 8.27356 17.7724 8.78016 17.4859 9.0709Z" fill="#FAFF1B"/>
<path d="M6 7L9 2H10L12.5 6.5L18 8L17.5 9.5L14.5 13L15.5 19H14L9 17L4.5 19L4 18L4.5 13.5L1 9.5V8L6 7Z" fill="#FAFF1B"/>
<g clip-path="url(#clip0)">
<path d="M75.786 7.27528C75.5198 7.03161 75.1922 6.87452 74.8385 6.82101L70.5075 6.16587L68.5707 2.08038C68.4125 1.7467 68.1677 1.4708 67.8629 1.28261C67.5801 1.10805 67.256 1.01575 66.9256 1.01575C66.5951 1.01575 66.271 1.10802 65.9882 1.28261C65.6834 1.4708 65.4387 1.74667 65.2804 2.08038L63.3436 6.1659L59.0127 6.82101C58.6589 6.87452 58.3313 7.03161 58.0651 7.27528C57.8182 7.50131 57.6338 7.7937 57.5317 8.12084C57.4296 8.44795 57.4138 8.79737 57.4858 9.13131C57.5635 9.49127 57.7399 9.81887 57.9959 10.0786L61.1298 13.2587L60.39 17.7491C60.2983 18.3056 60.4455 18.8713 60.7937 19.3013C61.1445 19.7345 61.6564 19.983 62.1981 19.983C62.4931 19.983 62.7883 19.9067 63.0519 19.7624L66.9256 17.6424L70.7993 19.7624C71.0629 19.9067 71.3581 19.983 71.6531 19.983C72.1947 19.983 72.7066 19.7345 73.0575 19.3013C73.4057 18.8713 73.5528 18.3056 73.4612 17.7491L72.7214 13.2587L75.8553 10.0786C76.1112 9.81884 76.2876 9.49127 76.3653 9.13131C76.4374 8.79737 76.4216 8.44795 76.3195 8.12084C76.2174 7.79373 76.0329 7.50135 75.786 7.27528ZM74.9116 9.0709L71.4506 12.583C71.3368 12.6985 71.2849 12.8649 71.3118 13.0279L72.1288 17.9871C72.1823 18.3119 71.9344 18.5757 71.6531 18.5757C71.5788 18.5757 71.5023 18.5574 71.4284 18.5169L67.1503 16.1755C67.0799 16.137 67.0028 16.1178 66.9256 16.1178C66.8485 16.1178 66.7713 16.137 66.7009 16.1755L62.4229 18.5169C62.3489 18.5574 62.2723 18.5757 62.1981 18.5757C61.9168 18.5757 61.6689 18.3119 61.7224 17.9871L62.5394 13.0279C62.5663 12.8649 62.5144 12.6985 62.4006 12.583L58.9395 9.0709C58.6529 8.78016 58.811 8.27356 59.207 8.21364L63.9901 7.49011C64.1473 7.46633 64.2833 7.36351 64.3536 7.21517L66.4927 2.70316C66.5812 2.51639 66.7534 2.423 66.9256 2.423C67.0978 2.423 67.27 2.51642 67.3585 2.70316L69.4975 7.21517C69.5679 7.36348 69.7038 7.46633 69.8611 7.49011L74.6441 8.21364C75.0401 8.27356 75.1982 8.78016 74.9116 9.0709Z" fill="#FAFF1B"/>
<path d="M63.3458 7L66.3458 2H67.3458L69.8458 6.5L75.3458 8L74.8458 9.5L71.8458 13L72.8458 19H71.3458L66.3458 17L61.8458 19L61.3458 18L61.8458 13.5L58.3458 9.5V8L63.3458 7Z" fill="#FAFF1B"/>
</g>
<g clip-path="url(#clip1)">
<path d="M47.0731 7.27528C46.807 7.03161 46.4793 6.87452 46.1256 6.82101L41.7946 6.16587L39.8578 2.08038C39.6996 1.7467 39.4548 1.4708 39.15 1.28261C38.8672 1.10805 38.5431 1.01575 38.2127 1.01575C37.8823 1.01575 37.5581 1.10802 37.2753 1.28261C36.9705 1.4708 36.7258 1.74667 36.5675 2.08038L34.6307 6.1659L30.2998 6.82101C29.946 6.87452 29.6184 7.03161 29.3522 7.27528C29.1054 7.50131 28.9209 7.7937 28.8188 8.12084C28.7167 8.44795 28.7009 8.79737 28.7729 9.13131C28.8507 9.49127 29.027 9.81887 29.283 10.0786L32.4169 13.2587L31.6771 17.7491C31.5854 18.3056 31.7326 18.8713 32.0808 19.3013C32.4316 19.7345 32.9435 19.983 33.4852 19.983C33.7802 19.983 34.0754 19.9067 34.339 19.7624L38.2127 17.6424L42.0864 19.7624C42.35 19.9067 42.6452 19.983 42.9402 19.983C43.4819 19.983 43.9937 19.7345 44.3446 19.3013C44.6928 18.8713 44.84 18.3056 44.7483 17.7491L44.0085 13.2587L47.1424 10.0786C47.3983 9.81884 47.5747 9.49127 47.6525 9.13131C47.7246 8.79737 47.7087 8.44795 47.6066 8.12084C47.5045 7.79373 47.32 7.50135 47.0731 7.27528ZM46.1987 9.0709L42.7377 12.583C42.624 12.6985 42.572 12.8649 42.5989 13.0279L43.4159 17.9871C43.4695 18.3119 43.2215 18.5757 42.9402 18.5757C42.8659 18.5757 42.7894 18.5574 42.7155 18.5169L38.4374 16.1755C38.3671 16.137 38.2899 16.1178 38.2127 16.1178C38.1356 16.1178 38.0584 16.137 37.9881 16.1755L33.71 18.5169C33.6361 18.5574 33.5594 18.5757 33.4852 18.5757C33.2039 18.5757 32.956 18.3119 33.0095 17.9871L33.8265 13.0279C33.8534 12.8649 33.8015 12.6985 33.6877 12.583L30.2266 9.0709C29.94 8.78016 30.0982 8.27356 30.4941 8.21364L35.2772 7.49011C35.4344 7.46633 35.5704 7.36351 35.6407 7.21517L37.7798 2.70316C37.8683 2.51639 38.0405 2.423 38.2127 2.423C38.3849 2.423 38.5571 2.51642 38.6456 2.70316L40.7847 7.21517C40.855 7.36348 40.9909 7.46633 41.1482 7.49011L45.9312 8.21364C46.3272 8.27356 46.4853 8.78016 46.1987 9.0709Z" fill="#FAFF1B"/>
<path d="M34.3457 7L37.3457 2H38.3457L40.8457 6.5L47 8.5L46 9.5L42.8457 13L43.8457 19H42.3457L37.3457 17L32.8457 19L32.3457 18L32.8457 13.5L29.3457 9.5V8L34.3457 7Z" fill="#FAFF1B"/>
</g>
<g clip-path="url(#clip2)">
<path d="M104.499 7.27528C104.233 7.03161 103.905 6.87452 103.551 6.82101L99.2204 6.16587L97.2836 2.08038C97.1254 1.7467 96.8806 1.4708 96.5758 1.28261C96.2929 1.10805 95.9689 1.01575 95.6384 1.01575C95.308 1.01575 94.9839 1.10802 94.7011 1.28261C94.3963 1.4708 94.1515 1.74667 93.9933 2.08038L92.0565 6.1659L87.7256 6.82101C87.3718 6.87452 87.0441 7.03161 86.778 7.27528C86.5311 7.50131 86.3467 7.7937 86.2446 8.12084C86.1425 8.44795 86.1266 8.79737 86.1987 9.13131C86.2764 9.49127 86.4528 9.81887 86.7088 10.0786L89.8427 13.2587L89.1029 17.7491C89.0112 18.3056 89.1584 18.8713 89.5066 19.3013C89.8574 19.7345 90.3693 19.983 90.9109 19.983C91.2059 19.983 91.5012 19.9067 91.7648 19.7624L95.6385 17.6424L99.5122 19.7624C99.7758 19.9067 100.071 19.983 100.366 19.983C100.908 19.983 101.42 19.7345 101.77 19.3013C102.119 18.8713 102.266 18.3056 102.174 17.7491L101.434 13.2587L104.568 10.0786C104.824 9.81884 105.001 9.49127 105.078 9.13131C105.15 8.79737 105.134 8.44795 105.032 8.12084C104.93 7.79373 104.746 7.50135 104.499 7.27528ZM103.625 9.0709L100.164 12.583C100.05 12.6985 99.9978 12.8649 100.025 13.0279L100.842 17.9871C100.895 18.3119 100.647 18.5757 100.366 18.5757C100.292 18.5757 100.215 18.5574 100.141 18.5169L95.8632 16.1755C95.7928 16.137 95.7157 16.1178 95.6385 16.1178C95.5614 16.1178 95.4842 16.137 95.4138 16.1755L91.1358 18.5169C91.0618 18.5574 90.9852 18.5757 90.911 18.5757C90.6297 18.5757 90.3817 18.3119 90.4353 17.9871L91.2523 13.0279C91.2792 12.8649 91.2272 12.6985 91.1135 12.583L87.6524 9.0709C87.3658 8.78016 87.5239 8.27356 87.9199 8.21364L92.703 7.49011C92.8602 7.46633 92.9961 7.36351 93.0665 7.21517L95.2056 2.70316C95.2941 2.51639 95.4663 2.423 95.6385 2.423C95.8107 2.423 95.9829 2.51642 96.0714 2.70316L98.2104 7.21517C98.2808 7.36348 98.4167 7.46633 98.5739 7.49011L103.357 8.21364C103.753 8.27356 103.911 8.78016 103.625 9.0709Z" fill="#FAFF1B"/>
<path d="M92.3457 7L95.3457 2H96.3457L98.8457 6.5L104.346 8L103.846 9.5L100.846 13L101.846 19H100.346L95.3457 17L90.8457 19L90.3457 18L90.8457 13.5L87.3457 9.5V8L92.3457 7Z" fill="#FAFF1B"/>
</g>
<g clip-path="url(#clip3)">
<path d="M133.212 7.27528C132.946 7.03161 132.618 6.87452 132.264 6.82101L127.933 6.16587L125.996 2.08038C125.838 1.7467 125.594 1.4708 125.289 1.28261C125.006 1.10805 124.682 1.01575 124.351 1.01575C124.021 1.01575 123.697 1.10802 123.414 1.28261C123.109 1.4708 122.864 1.74667 122.706 2.08038L120.769 6.1659L116.438 6.82101C116.085 6.87452 115.757 7.03161 115.491 7.27528C115.244 7.50131 115.06 7.7937 114.957 8.12084C114.855 8.44795 114.84 8.79737 114.912 9.13131C114.989 9.49127 115.166 9.81887 115.422 10.0786L118.556 13.2587L117.816 17.7491C117.724 18.3056 117.871 18.8713 118.219 19.3013C118.57 19.7345 119.082 19.983 119.624 19.983C119.919 19.983 120.214 19.9067 120.478 19.7624L124.351 17.6424L128.225 19.7624C128.489 19.9067 128.784 19.983 129.079 19.983C129.621 19.983 130.132 19.7345 130.483 19.3013C130.831 18.8713 130.979 18.3056 130.887 17.7491L130.147 13.2587L133.281 10.0786C133.537 9.81884 133.713 9.49127 133.791 9.13131C133.863 8.79737 133.847 8.44795 133.745 8.12084C133.643 7.79373 133.459 7.50135 133.212 7.27528ZM132.337 9.0709L128.876 12.583C128.763 12.6985 128.711 12.8649 128.738 13.0279L129.555 17.9871C129.608 18.3119 129.36 18.5757 129.079 18.5757C129.005 18.5757 128.928 18.5574 128.854 18.5169L124.576 16.1755C124.506 16.137 124.429 16.1178 124.351 16.1178C124.274 16.1178 124.197 16.137 124.127 16.1755L119.849 18.5169C119.775 18.5574 119.698 18.5757 119.624 18.5757C119.343 18.5757 119.095 18.3119 119.148 17.9871L119.965 13.0279C119.992 12.8649 119.94 12.6985 119.826 12.583L116.365 9.0709C116.079 8.78016 116.237 8.27356 116.633 8.21364L121.416 7.49011C121.573 7.46633 121.709 7.36351 121.779 7.21517L123.918 2.70316C124.007 2.51639 124.179 2.423 124.351 2.423C124.524 2.423 124.696 2.51642 124.784 2.70316L126.923 7.21517C126.994 7.36348 127.13 7.46633 127.287 7.49011L132.07 8.21364C132.466 8.27356 132.624 8.78016 132.337 9.0709Z" fill="#FAFF1B"/>
<path d="M120.346 7L123.346 2H124.346L126.846 6.5L132.346 8L133 9L128.846 13L129.846 19H128.346L123.346 17L118.846 19L118.346 18L118.846 13.5L115.346 9.5V8L120.346 7Z" fill="#FAFF1B"/>
</g>
<defs>
<clipPath id="clip0">
<rect width="19.1429" height="19.1429" fill="white" transform="translate(57.4258 0.977051)"/>
</clipPath>
<clipPath id="clip1">
<rect width="19.1429" height="19.1429" fill="white" transform="translate(28.7129 0.977051)"/>
</clipPath>
<clipPath id="clip2">
<rect width="19.1429" height="19.1429" fill="white" transform="translate(86.1387 0.977051)"/>
</clipPath>
<clipPath id="clip3">
<rect width="19.1429" height="19.1429" fill="white" transform="translate(114.852 0.977051)"/>
</clipPath>
</defs>
</svg>
