<svg width="20" height="21" viewBox="0 0 20 21" fill="none" xmlns="http://www.w3.org/2000/svg">
<g clip-path="url(#clip0)">
<path d="M19.2118 7.27528C18.9456 7.03161 18.618 6.87452 18.2643 6.82101L13.9333 6.16587L11.9965 2.08038C11.8383 1.7467 11.5935 1.4708 11.2887 1.28261C11.0058 1.10805 10.6817 1.01575 10.3513 1.01575C10.0209 1.01575 9.6968 1.10802 9.41401 1.28261C9.10917 1.4708 8.86443 1.74667 8.70622 2.08038L6.76938 6.1659L2.43846 6.82101C2.0847 6.87452 1.75704 7.03161 1.49091 7.27528C1.24403 7.50131 1.05959 7.7937 0.957485 8.12084C0.855406 8.44795 0.839535 8.79737 0.911605 9.13131C0.989323 9.49127 1.16571 9.81887 1.42171 10.0786L4.55559 13.2587L3.81577 17.7491C3.72411 18.3056 3.87124 18.8713 4.21948 19.3013C4.5703 19.7345 5.08217 19.983 5.62383 19.983C5.91884 19.983 6.21409 19.9067 6.47766 19.7624L10.3514 17.6424L14.2251 19.7624C14.4886 19.9067 14.7839 19.983 15.0789 19.983C15.6205 19.983 16.1324 19.7345 16.4833 19.3013C16.8315 18.8713 16.9786 18.3056 16.887 17.7491L16.1472 13.2587L19.2811 10.0786C19.537 9.81884 19.7134 9.49127 19.7911 9.13131C19.8632 8.79737 19.8474 8.44795 19.7453 8.12084C19.6431 7.79373 19.4587 7.50135 19.2118 7.27528ZM18.3374 9.0709L14.8764 12.583C14.7626 12.6985 14.7107 12.8649 14.7376 13.0279L15.5546 17.9871C15.6081 18.3119 15.3602 18.5757 15.0789 18.5757C15.0046 18.5757 14.9281 18.5574 14.8541 18.5169L10.5761 16.1755C10.5057 16.137 10.4285 16.1178 10.3514 16.1178C10.2742 16.1178 10.1971 16.137 10.1267 16.1755L5.84866 18.5169C5.77473 18.5574 5.69811 18.5757 5.6239 18.5757C5.34256 18.5757 5.09464 18.3119 5.14815 17.9871L5.96519 13.0279C5.99207 12.8649 5.94013 12.6985 5.82635 12.583L2.36525 9.0709C2.0787 8.78016 2.23682 8.27356 2.6328 8.21364L7.41587 7.49011C7.5731 7.46633 7.70904 7.36351 7.77937 7.21517L9.91844 2.70316C10.007 2.51639 10.1792 2.423 10.3514 2.423C10.5236 2.423 10.6958 2.51642 10.7843 2.70316L12.9233 7.21517C12.9937 7.36348 13.1296 7.46633 13.2868 7.49011L18.0699 8.21364C18.4659 8.27356 18.624 8.78016 18.3374 9.0709Z" fill="#FAFF1B"/>
<path d="M6.3457 7L9.3457 2H10.3457L12.8457 6.5L18.3457 8L19 9L14.8457 13L15.8457 19H14.3457L9.3457 17L4.8457 19L4.3457 18L4.8457 13.5L1.3457 9.5V8L6.3457 7Z" fill="#FAFF1B"/>
</g>
<defs>
<clipPath id="clip0">
<rect width="19.1429" height="19.1429" fill="white" transform="translate(0.851562 0.977051)"/>
</clipPath>
</defs>
</svg>
