<svg width="16" height="16" viewBox="0 0 16 16" fill="none" xmlns="http://www.w3.org/2000/svg">
<path fill-rule="evenodd" clip-rule="evenodd" d="M15.1114 15.1117C15.6024 14.6208 15.6024 13.8248 15.1114 13.3339L9.77774 8.0002L15.1113 2.66669C15.6022 2.17574 15.6022 1.37976 15.1113 0.888809C14.6203 0.397862 13.8243 0.397864 13.3334 0.888811L7.99986 6.22233L2.66625 0.888718C2.1753 0.397771 1.37932 0.397771 0.88837 0.888718C0.397422 1.37967 0.397424 2.17565 0.888372 2.6666L6.22198 8.0002L0.88823 13.334C0.397283 13.8249 0.397283 14.6209 0.88823 15.1118C1.37918 15.6028 2.17516 15.6028 2.66611 15.1118L7.99986 9.77808L13.3335 15.1117C13.8245 15.6027 14.6205 15.6027 15.1114 15.1117Z" fill="white"/>
</svg>
