<svg width="230" height="230" viewBox="0 0 230 230" fill="none" xmlns="http://www.w3.org/2000/svg">
<path d="M226.166 46H157.241H72.833H3.8335L34.5003 115L3.8335 184H72.8335H157.242H226.167L195.499 115L226.166 46Z" fill="#FFE1E6"/>
<path d="M180.166 115H195.499L226.166 184H210.832L180.166 115Z" fill="#F4CDD3"/>
<path d="M226.166 46H157.167H72.7585H3.8335L34.5003 115H195.499L226.166 46Z" fill="#FED6DD"/>
<path d="M180.166 115H195.499L226.166 46H210.833L180.166 115Z" fill="#EEC0C7"/>
<path d="M88.1661 149.5H49.8329C47.7144 149.5 45.9993 151.222 45.9993 153.334C45.9993 155.46 47.7139 157.167 49.8329 157.167H88.1661C90.285 157.167 92.0002 155.46 92.0002 153.334C92.0002 151.222 90.285 149.5 88.1661 149.5Z" fill="#F4CDD3"/>
<path d="M180.166 149.5H141.833C139.714 149.5 137.999 151.222 137.999 153.334C137.999 155.46 139.714 157.167 141.833 157.167H180.166C182.285 157.167 184 155.46 184 153.334C184 151.222 182.285 149.5 180.166 149.5Z" fill="#F4CDD3"/>
<path d="M115 99.6669C129.794 99.6669 143.293 105.731 152.951 115.39C162.684 125.122 168.667 138.54 168.667 153.334H153.408C153.408 132.176 136.233 115.001 115.075 115.001C93.9171 115.001 76.7417 132.176 76.7417 153.334H61.3335C61.3335 142.223 64.7107 131.951 70.4603 123.356C80.118 109.1 96.4471 99.6669 115 99.6669Z" fill="#FFCE54"/>
<path d="M135.881 73.5461C134.937 71.6603 132.441 70.1177 130.333 70.1177H99.6671C97.5584 70.1177 95.0621 71.6607 94.1192 73.5461L89.8813 82.0224C88.9379 83.9082 89.6643 86.3066 91.4949 87.3524L111.672 98.8821C113.503 99.9283 116.498 99.9283 118.328 98.8821L138.506 87.3524C140.336 86.3062 141.063 83.9078 140.119 82.0224L135.881 73.5461Z" fill="#4FC1E9"/>
<path d="M96.8255 70.9114C95.6643 71.5407 94.6495 72.4881 94.1208 73.5438L92.0009 77.7844L89.8815 82.0224C89.3357 83.1144 89.3523 84.3772 89.8159 85.4508H115L96.8255 70.9114Z" fill="#3BAFDA"/>
<path d="M115 85.4508H140.185C140.648 84.3772 140.665 83.1144 140.119 82.0224L138 77.7844L135.88 73.5438C135.351 72.4881 134.336 71.5407 133.175 70.9114L115 85.4508Z" fill="#3BAFDA"/>
<path d="M3.8335 184V207C3.8335 219.728 14.1053 230 26.8335 230H203.167C215.894 230 226.167 219.728 226.167 207V184H3.8335Z" fill="#ED5565"/>
<path d="M210.833 184V207C210.833 219.728 200.56 230 187.833 230H203.166C215.894 230 226.166 219.728 226.166 207V184H210.833Z" fill="#DA4453"/>
<path d="M72.8333 184H157.241V191.666C157.241 195.964 153.79 199.333 149.575 199.333H80.5001C76.285 199.333 72.8337 195.964 72.8337 191.666V184H72.8333Z" fill="#FFCE54"/>
<path d="M134.241 199.333H149.575C153.79 199.333 157.241 195.889 157.241 191.666V184H141.908V191.666C141.908 195.889 138.456 199.333 134.241 199.333Z" fill="#F6BB42"/>
<path d="M203.166 0H26.8335C14.1053 0 3.8335 10.3473 3.8335 23V46H226.167V23C226.166 10.3473 215.894 0 203.166 0Z" fill="#ED5565"/>
<path d="M187.833 0H203.166C215.894 0 226.166 10.3473 226.166 23V46H210.833V23C210.833 10.3473 200.56 0 187.833 0Z" fill="#DA4453"/>
<path d="M157.241 38.3337V46.0001H72.8333V38.3337C72.8333 34.111 76.2846 30.6669 80.4996 30.6669H149.574C153.79 30.6664 157.241 34.111 157.241 38.3337Z" fill="#FFCE54"/>
<path d="M134.241 30.6664H149.575C153.79 30.6664 157.241 34.111 157.241 38.3332V45.9996H141.908V38.3336C141.908 34.111 138.456 30.6664 134.241 30.6664Z" fill="#F6BB42"/>
</svg>
