<svg width="230" height="230" viewBox="0 0 230 230" fill="none" xmlns="http://www.w3.org/2000/svg">
<g clip-path="url(#clip0)">
<path d="M204.188 18.7755H25.8117C18.0667 18.7755 11.7301 25.1122 11.7301 32.8571V65.7049L15.0161 138L11.7301 211.85V226.479V226.48C11.7301 228.424 13.3064 230 15.2501 230H214.748C216.692 230 218.268 228.424 218.269 226.48L218.27 226.479V65.7049V32.8571C218.27 25.1122 211.933 18.7755 204.188 18.7755Z" fill="#965353"/>
<path d="M204.187 230H214.749C216.693 230 218.269 228.423 218.269 226.48L218.27 226.479V178.367H204.187V230H204.187Z" fill="#864B4C"/>
<path d="M204.188 18.7755H25.8117C18.0667 18.7755 11.7301 25.1122 11.7301 32.8571V65.7049V212.398C11.7301 214.342 13.3064 215.918 15.2501 215.918H180.709L218.19 178.367L218.27 178.288V65.7049V32.8571C218.27 25.1122 211.933 18.7755 204.188 18.7755Z" fill="#FFE1E6"/>
<path d="M204.188 18.7755H25.8117C18.0667 18.7755 11.7301 25.1122 11.7301 32.8571V65.7049H218.27V32.8571C218.27 25.1122 211.933 18.7755 204.188 18.7755Z" fill="#656D78"/>
<path d="M204.188 18.7755H190.105C197.85 18.7755 204.187 25.1122 204.187 32.8571V65.7049H218.27V32.8571C218.27 25.1122 211.933 18.7755 204.188 18.7755Z" fill="#515760"/>
<path d="M171.326 18.7755V7.04059C171.326 3.15441 174.481 0 178.367 0C182.253 0 185.408 3.15441 185.408 7.04059V18.7751V30.5095C185.408 34.3962 182.253 37.5501 178.367 37.5501C174.481 37.5501 171.326 34.3957 171.326 30.5095V18.7755Z" fill="#FFCE54"/>
<path d="M143.163 18.7755V30.51C143.163 34.3966 140.009 37.5506 136.123 37.5506C132.232 37.5506 129.082 34.3962 129.082 30.51V18.7755V7.04059C129.082 3.15441 132.231 0 136.122 0C140.009 0 143.163 3.15441 143.163 7.04059V18.7755H143.163Z" fill="#FFCE54"/>
<path d="M100.918 18.7755V30.51C100.918 34.3966 97.7636 37.5506 93.8774 37.5506C89.9863 37.5506 86.8369 34.3962 86.8369 30.51V18.7755V7.04059C86.8364 3.15441 89.9859 0 93.8774 0C97.7641 0 100.918 3.15441 100.918 7.04059V18.7755Z" fill="#FFCE54"/>
<path d="M44.5872 18.7755V7.04059C44.5872 3.15441 47.7416 0 51.6282 0C55.5193 0 58.6688 3.15441 58.6688 7.04059V18.7751V30.5095C58.6688 34.3962 55.5189 37.5501 51.6282 37.5501C47.7416 37.5501 44.5876 34.3957 44.5876 30.5095L44.5872 18.7755Z" fill="#FFCE54"/>
<path d="M218.19 65.7026H204.188V178.366H218.19V65.7026Z" fill="#F4CDD3"/>
<path d="M204.183 65.7026H11.7335V72.7432H204.183V65.7026Z" fill="#F4CDD3"/>
<path d="M184.23 178.367C182.285 178.367 180.709 179.943 180.709 181.887V215.918L218.19 178.367H184.23Z" fill="white"/>
<path d="M159.718 102.608C147.368 90.2631 127.349 90.2631 115 102.608C102.65 90.2631 82.6308 90.2631 70.2814 102.608C57.9319 114.958 57.9319 134.981 70.2814 147.326L112.398 189.434H112.401C113.045 190.14 113.969 190.586 115 190.586C116.031 190.586 116.955 190.14 117.599 189.434H117.604L159.719 147.326C172.068 134.981 172.068 114.958 159.718 102.608Z" fill="#ED5565"/>
<path d="M159.718 102.608C151.739 94.6327 140.562 91.8179 130.318 94.1471C135.93 95.4234 141.264 98.2386 145.635 102.608C157.984 114.958 157.984 134.981 145.635 147.326L107.959 184.996L112.398 189.434H112.401C113.045 190.14 113.969 190.586 115 190.586C116.031 190.586 116.955 190.14 117.599 189.434H117.604L159.719 147.326C172.068 134.981 172.068 114.958 159.718 102.608Z" fill="#DA4453"/>
</g>
<defs>
<clipPath id="clip0">
<rect width="230" height="230" fill="white"/>
</clipPath>
</defs>
</svg>
