<svg width="200" height="182" viewBox="0 0 200 182" fill="none" xmlns="http://www.w3.org/2000/svg">
<path d="M145.455 0C125.498 0 110.192 11.23 100 27.9419C89.8061 11.227 74.4988 0 54.5455 0C39.0842 0 24.977 6.53259 14.8236 18.3941C5.26485 29.5623 0 44.4766 0 60.3906C0 77.6946 6.48364 93.6918 20.4036 110.735C32.6085 125.679 50.1297 141.051 70.4182 158.852C77.9188 165.433 85.6752 172.238 93.9182 179.664C95.6473 181.222 97.8236 182 100 182C102.176 182 104.353 181.222 106.082 179.664C114.325 172.238 122.081 165.433 129.582 158.851C149.87 141.051 167.392 125.678 179.596 110.735C193.516 93.6924 200 77.6946 200 60.3906C200 27.8509 177.728 0 145.455 0Z" fill="white"/>
</svg>
